<?xml version="1.0" encoding="iso-8859-1"?>
<!-- Generator: Adobe Illustrator 19.0.0, SVG Export Plug-In . SVG Version: 6.00 Build 0)  -->
<svg version="1.1" id="Layer_1" xmlns="http://www.w3.org/2000/svg" xmlns:xlink="http://www.w3.org/1999/xlink" x="0px" y="0px"
	 viewBox="0 0 502 502" style="enable-background:new 0 0 502 502;" xml:space="preserve">
<g>
	<g>
		<path d="M103.656,466.086c0,19.803,15,35.914,33.438,35.914h227.813c18.438,0,33.438-16.111,33.438-35.914V35.914
			c0-19.803-15-35.914-33.438-35.914H137.094c-18.438,0-33.438,16.111-33.438,35.914V466.086z M123.656,78.047h254.688v302.37
			H123.656V78.047z M123.656,35.914c0-8.775,6.028-15.914,13.438-15.914h227.813c7.409,0,13.438,7.139,13.438,15.914v22.133H123.656
			V35.914z M378.344,466.086c0,8.775-6.028,15.914-13.438,15.914H137.094c-7.41,0-13.438-7.139-13.438-15.914v-65.669h254.688
			V466.086z"/>
		<path d="M251,468.83c15.517,0,28.14-12.623,28.14-28.14s-12.623-28.14-28.14-28.14c-15.516,0-28.14,12.623-28.14,28.14
			S235.484,468.83,251,468.83z M251,432.551c4.488,0,8.14,3.651,8.14,8.14s-3.651,8.14-8.14,8.14s-8.14-3.651-8.14-8.14
			S246.512,432.551,251,432.551z"/>
		<path d="M260.329,30.061h-18.658c-5.523,0-10,4.478-10,10s4.477,10,10,10h18.658c5.522,0,10-4.478,10-10
			S265.852,30.061,260.329,30.061z"/>
		<path d="M152.527,165.85c-5.523,0-10,4.478-10,10v176.215c0,5.522,4.477,10,10,10s10-4.478,10-10V175.85
			C162.527,170.327,158.05,165.85,152.527,165.85z"/>
		<path d="M152.527,98.473c-5.523,0-10,4.478-10,10v26.951c0,5.522,4.477,10,10,10s10-4.478,10-10v-26.951
			C162.527,102.95,158.05,98.473,152.527,98.473z"/>
	</g>
</g>
<g>
</g>
<g>
</g>
<g>
</g>
<g>
</g>
<g>
</g>
<g>
</g>
<g>
</g>
<g>
</g>
<g>
</g>
<g>
</g>
<g>
</g>
<g>
</g>
<g>
</g>
<g>
</g>
<g>
</g>
</svg>
