<?xml version="1.0" encoding="utf-8"?>
<!-- Generator: Adobe Illustrator 18.0.0, SVG Export Plug-In . SVG Version: 6.00 Build 0)  -->
<!DOCTYPE svg PUBLIC "-//W3C//DTD SVG 1.1//EN" "http://www.w3.org/Graphics/SVG/1.1/DTD/svg11.dtd">
<svg version="1.1" id="Artwork" xmlns="http://www.w3.org/2000/svg" xmlns:xlink="http://www.w3.org/1999/xlink" x="0px" y="0px"
	 viewBox="0 0 512 512" enable-background="new 0 0 512 512" xml:space="preserve">
<g>
	<path d="M23.3,94.7v280.5c0,46.8,77.5,82.1,180.3,82.1c9.8,0,19.6-0.3,29.1-1c6.7-0.5,11.8-6.3,11.4-13.1
		c-0.5-6.7-6.3-11.7-13.1-11.4c-9,0.6-18.2,1-27.4,1c-91.8,0-155.8-30.4-155.8-57.6v-51c30.7,24.1,87.7,39.6,155.8,39.6
		c6.2,0,12.5-0.1,18.6-0.4c6.8-0.3,12-6,11.7-12.8c-0.3-6.8-6-12-12.8-11.7c-5.8,0.3-11.7,0.4-17.5,0.4
		c-91.8,0-155.8-30.4-155.8-57.6v-50.9c30.7,24.1,87.7,39.6,155.8,39.6c102.8,0,180.3-35.3,180.3-82.1V94.7
		c0-46.8-77.5-82.1-180.3-82.1C100.8,12.5,23.3,47.9,23.3,94.7z M203.6,245.8c-91.8,0-155.8-30.4-155.8-57.6v-51
		c30.7,24.1,87.7,39.6,155.8,39.6c68.1,0,125.1-15.5,155.8-39.6v51C359.5,215.5,295.5,245.8,203.6,245.8z M359.5,94.7
		c0,27.3-64,57.6-155.8,57.6S47.8,121.9,47.8,94.7S111.8,37,203.6,37S359.5,67.4,359.5,94.7z"/>
	<path d="M371.7,265.5c-64.5,0-117,52.5-117,117s52.5,117,117,117c64.5,0,117-52.5,117-117S436.2,265.5,371.7,265.5z M371.7,475
		c-51,0-92.5-41.5-92.5-92.5s41.5-92.5,92.5-92.5s92.5,41.5,92.5,92.5S422.7,475,371.7,475z"/>
	<path d="M380,327c-4.7-4.3-11.8-4.3-16.5,0l-32.6,29.8c-5,4.6-5.4,12.3-0.8,17.3c4.6,5,12.3,5.4,17.3,0.8l12.1-11.1V427
		c0,6.8,5.5,12.3,12.3,12.3S384,433.8,384,427v-63.2l12.1,11.1c2.3,2.1,5.3,3.2,8.3,3.2c3.3,0,6.6-1.3,9.1-4
		c4.6-5,4.2-12.7-0.8-17.3L380,327z"/>
</g>
</svg>
