<?xml version="1.0" encoding="iso-8859-1"?>
<!-- Generator: Adobe Illustrator 19.0.0, SVG Export Plug-In . SVG Version: 6.00 Build 0)  -->
<svg version="1.1" id="Layer_1" xmlns="http://www.w3.org/2000/svg" xmlns:xlink="http://www.w3.org/1999/xlink" x="0px" y="0px"
	 viewBox="0 0 512 512" style="enable-background:new 0 0 512 512;" xml:space="preserve">
<g>
	<g>
		<g>
			<path d="M309.544,345.772H208.316c-5.884,0-10.656,4.771-10.656,10.656s4.772,10.656,10.656,10.656h101.228
				c5.884,0,10.656-4.771,10.656-10.656S315.428,345.772,309.544,345.772z"/>
			<path d="M163.03,345.772h-1.598c-5.884,0-10.656,4.771-10.656,10.656s4.772,10.656,10.656,10.656h1.598
				c5.884,0,10.656-4.771,10.656-10.656S168.914,345.772,163.03,345.772z"/>
			<path d="M367.617,260.529H111.883c-5.884,0-10.656,4.771-10.656,10.656v42.622c0,5.885,4.772,10.656,10.656,10.656h255.734
				c5.884,0,10.656-4.771,10.656-10.656v-42.622C378.273,265.299,373.501,260.529,367.617,260.529z M309.011,303.151H122.539V281.84
				h186.472V303.151z M356.961,303.151h-26.639V281.84h26.639V303.151z"/>
			<path d="M479.501,344.133V38.36c0-5.885-4.772-10.656-10.656-10.656H10.656C4.772,27.704,0,32.475,0,38.36v372.945
				c0,5.885,4.772,10.656,10.656,10.656h348.297c6.972,35.482,38.3,62.335,75.794,62.335c42.598,0,77.253-34.655,77.253-77.253
				C512,381.119,499.151,358.153,479.501,344.133z M21.311,49.016h436.878v21.311H21.311V49.016z M357.78,400.649H21.311V91.638
				h436.878v241.798c-7.398-2.361-15.272-3.646-23.442-3.646C394.305,329.79,361.044,361.034,357.78,400.649z M434.747,462.984
				c-30.846,0-55.942-25.096-55.942-55.942c0-30.846,25.096-55.942,55.942-55.942c30.846,0,55.942,25.096,55.942,55.942
				C490.689,437.888,465.593,462.984,434.747,462.984z"/>
			<path d="M456.058,396.387h-10.656v-10.656c0-5.885-4.772-10.656-10.656-10.656c-5.884,0-10.656,4.771-10.656,10.656v10.656
				h-10.656c-5.884,0-10.656,4.77-10.656,10.656c0,5.885,4.772,10.656,10.656,10.656h10.656v10.656
				c0,5.885,4.772,10.656,10.656,10.656c5.884,0,10.656-4.771,10.656-10.656v-10.656h10.656c5.884,0,10.656-4.77,10.656-10.656
				C466.714,401.158,461.942,396.387,456.058,396.387z"/>
			<path d="M191.8,231.759h95.9c26.44,0,47.95-21.51,47.95-47.95c0-26.44-21.51-47.95-47.95-47.95h-95.9
				c-26.44,0-47.95,21.51-47.95,47.95C143.85,210.248,165.361,231.759,191.8,231.759z M191.8,157.17h95.9
				c14.689,0,26.639,11.95,26.639,26.639s-11.95,26.639-26.639,26.639h-95.9c-14.689,0-26.639-11.95-26.639-26.639
				S177.112,157.17,191.8,157.17z"/>
		</g>
	</g>
</g>
<g>
</g>
<g>
</g>
<g>
</g>
<g>
</g>
<g>
</g>
<g>
</g>
<g>
</g>
<g>
</g>
<g>
</g>
<g>
</g>
<g>
</g>
<g>
</g>
<g>
</g>
<g>
</g>
<g>
</g>
</svg>
